#N canvas 43 328 1121 421 12;
#X text 8 52 summary:;
#X text 8 122 parameters:;
#X obj 593 95 noise~;
#X obj 1003 43 tgl 15 0 empty empty empty 17 7 0 10 -262144 -1 -1 1
1;
#X obj 840 206 tgl 15 0 empty empty empty 17 7 0 10 -262144 -1 -1 0
1;
#X obj 593 225 env~;
#X floatatom 593 249 5 0 0 0 - - -, f 5;
#X obj 693 225 env~;
#X floatatom 693 249 5 0 0 0 - - -, f 5;
#X text 589 76 test signal;
#X text 1019 40 dsp on/off;
#X text 589 266 input gain;
#X text 689 266 output gain;
#N canvas 0 22 252 252 listen 0;
#X obj 89 20 inlet;
#X obj 18 175 *~;
#X obj 89 84 * 0.1;
#X msg 89 108 \$1 50;
#X obj 89 132 line~;
#X obj 18 207 dac~;
#X obj 18 20 inlet~;
#X msg 144 104 \; pd dsp 1;
#X obj 89 45 t f f;
#X obj 144 79 sel 1;
#X connect 0 0 8 0;
#X connect 1 0 5 0;
#X connect 1 0 5 1;
#X connect 2 0 3 0;
#X connect 3 0 4 0;
#X connect 4 0 1 1;
#X connect 6 0 1 0;
#X connect 8 0 2 0;
#X connect 8 1 9 0;
#X connect 9 0 7 0;
#X restore 771 225 pd listen;
#N canvas 0 22 231 221 dsp 0;
#X obj 14 13 inlet;
#X obj 14 173 outlet;
#X obj 14 99 r pd;
#X obj 14 124 route dsp;
#X msg 14 149 set \$1;
#X msg 14 38 \; pd dsp \$1;
#X connect 0 0 5 0;
#X connect 2 0 3 0;
#X connect 3 0 4 0;
#X connect 4 0 1 0;
#X restore 1003 61 pd dsp;
#X text 8 385 Elliot Patros 2016;
#X text 715 320 see also:;
#X text 547 342 second order filters;
#X text 571 366 equalizer filters;
#X obj 806 366 lowshelf~;
#X obj 886 366 peak~;
#X text 856 204 volume on/off;
#X obj 63 13 fir~;
#X obj 718 342 lowpass~;
#X obj 790 342 highpass~;
#X obj 870 342 bandpass~;
#X obj 950 342 notch~;
#X text 571 391 nth order filters;
#X obj 718 390 fir~;
#X text 18 68 fir~ is a resonant fir filter. It takes two control rate
parameters: "dB" and "freq".;
#X obj 1006 342 allpass~;
#X obj 718 366 highshelf~;
#X text 765 167 argument: table name;
#N canvas 0 22 450 278 (subpatch) 0;
#X array foo 2 float 3;
#A 0 0.25 0.25;
#X coords 0 1 2 -1 120 64 1 0 0;
#X restore 28 280 graph;
#X obj 152 285 loadbang;
#X text 108 14 -- nth order finite impulse response filter;
#X obj 693 167 fir~ foo;
#X text 790 116 reference another table;
#N canvas 0 22 450 278 (subpatch) 0;
#X array bar 2 float 3;
#A 0 -0.9 0.9;
#X coords 0 1 2 -1 120 64 1 0 0;
#X restore 298 280 graph;
#X obj 422 285 loadbang;
#X text 18 139 table name: name of a table with filter coefficients.
fir~ uses the samples in the table with this name as filter coefficients.
The sample values of the table can be changed anytime. However \, if
the size or name of the table changes \, set should be immediately
called for any corresponding fir~ objects.;
#X msg 723 128 set bar;
#X msg 723 95 set foo;
#X msg 152 308 \; foo const 0.25;
#X msg 422 308 \; bar 0 -0.9 0.9;
#X connect 2 0 5 0;
#X connect 2 0 36 0;
#X connect 3 0 14 0;
#X connect 4 0 13 1;
#X connect 5 0 6 0;
#X connect 7 0 8 0;
#X connect 14 0 3 0;
#X connect 34 0 43 0;
#X connect 36 0 7 0;
#X connect 36 0 13 0;
#X connect 39 0 44 0;
#X connect 41 0 36 0;
#X connect 42 0 36 0;
